# xmcd
#
# Track frame offsets:
#	150
#	16835
#	33019
#	49191
#	69204
#	90184
#	110639
#	126238
#	142400
#	160064
#	175079
#	191732
#	207476
#	223428
#	241225
#	257442
#	281985
#	304753
#	321078
#	339508
#
# Disc length: 4739 seconds
#
# Revision: 0
# Processed by: cddbd v1.5.2PL0 Copyright (c) Steve Scherf et al.
# Submitted via: EasyCDDAExtractor 15.3.0.1
#
DISCID=27128114
DTITLE=Jennifer Lopez - Greatest Hits - CD 2
DYEAR=2015
DGENRE=Pop
TTITLE0=We Are One (Ole Ola) (The Official 2014 FIFA World Cup Song) (With Pit
TTITLE0=bull and Claudia Leitte)
TTITLE1=First Love
TTITLE2=Hypnotico
TTITLE3=(What Is) Love
TTITLE4=Girls (Featuring Tyga)
TTITLE5=Hold You Down (Featuring Fat Joe)
TTITLE6=This Boy's Fire (With Santana and Baby Bash)
TTITLE7=Fresh Out The Oven
TTITLE8=Run The World
TTITLE9=I'm Gonna Be Alright (Track Masters Remix)
TTITLE10=I'm Glad
TTITLE11=Stay Together
TTITLE12=Play
TTITLE13=I Got U
TTITLE14=The One
TTITLE15=Feelin' So Good
TTITLE16=No Me Ames (Duet With Marc Anthony) (Tropical Remix)
TTITLE17=Me Haces Falta
TTITLE18=We Gotta Talk
TTITLE19=Do You Know Where You're Going To (Theme From Mahagony)
EXTD=
EXTT0=
EXTT1=
EXTT2=
EXTT3=
EXTT4=
EXTT5=
EXTT6=
EXTT7=
EXTT8=
EXTT9=
EXTT10=
EXTT11=
EXTT12=
EXTT13=
EXTT14=
EXTT15=
EXTT16=
EXTT17=
EXTT18=
EXTT19=
PLAYORDER=
